<svg id="2cf41747-0c0c-4d70-aad4-093c093adad4" data-name="Layer 1" xmlns="http://www.w3.org/2000/svg" xmlns:xlink="http://www.w3.org/1999/xlink" width="1022.84" height="813.16" viewBox="0 0 1022.84 813.16">
<defs>
    <linearGradient id="3cf802be-0480-4c68-848a-073112220499" x1="635.22" y1="545.34" x2="635.22" y2="43.42" gradientUnits="userSpaceOnUse"><stop offset="0" stop-color="gray" stop-opacity="0.25"/><stop offset="0.54" stop-color="gray" stop-opacity="0.12"/><stop offset="1" stop-color="gray" stop-opacity="0.1"/></linearGradient>
</defs>
<title>book lover</title>





<g id="leaves_flying">

    <path d="M399,149.92s-38-2.29-33.56,24.37c0,0-.89,4.71,3.38,6.85,0,0,.07-2,3.9-1.31a17.05,17.05,0,0,0,4.14.2,8.62,8.62,0,0,0,5.05-2.08h0s10.69-4.42,14.85-21.9c0,0,3.08-3.81,3-4.79L393.32,154s2.19,4.63.47,8.48c0,0-.21-8.31-1.45-8.12-.25,0-3.33,1.61-3.33,1.61s3.77,8.07.92,13.93c0,0,1.08-9.94-2.1-13.35l-4.52,2.64s4.41,8.33,1.42,15.13c0,0,.77-10.43-2.37-14.49l-4.1,3.2s4.15,8.21,1.62,13.85c0,0-.33-12.14-2.5-13.06,0,0-3.59,3.16-4.13,4.46,0,0,2.84,6,1.07,9.11,0,0-1.07-8.09-2-8.13,0,0-3.57,5.36-3.94,9a19.46,19.46,0,0,1,3.07-9.54,10.71,10.71,0,0,0-5.46,2.83s.55-3.79,6.35-4.12c0,0,2.95-4.07,3.74-4.31,0,0-5.77-.49-9.26,1.06,0,0,3.08-3.57,10.31-2l4-3.3s-7.58-1-10.8.11c0,0,3.71-3.16,11.89-.86l4.41-2.63s-6.47-1.39-10.32-.89c0,0,4.06-2.19,11.61.18l3.14-1.41s-4.73-.93-6.12-1.08-1.46-.53-1.46-.53a16.51,16.51,0,0,1,8.9,1S399.13,150.34,399,149.92Z" transform="translate(-88.58 -43.42)" fill="#ff1a5b"/><path d="M933.6,259.5s-38-2.29-33.56,24.37c0,0-.89,4.71,3.38,6.85,0,0,.07-2,3.9-1.31a17.62,17.62,0,0,0,4.14.2,8.59,8.59,0,0,0,5-2.08h0s10.7-4.42,14.85-21.9c0,0,3.08-3.81,3-4.79l-6.42,2.74s2.19,4.63.47,8.48c0,0-.21-8.31-1.44-8.12-.25,0-3.34,1.61-3.34,1.61s3.77,8.07.93,13.93c0,0,1.08-9.94-2.11-13.35l-4.52,2.64s4.41,8.33,1.42,15.13c0,0,.77-10.43-2.37-14.49l-4.09,3.2s4.14,8.21,1.61,13.85c0,0-.33-12.14-2.5-13.06,0,0-3.58,3.16-4.13,4.46,0,0,2.84,6,1.08,9.11,0,0-1.08-8.09-2-8.13,0,0-3.57,5.36-3.94,9a19.4,19.4,0,0,1,3.08-9.54,10.76,10.76,0,0,0-5.47,2.83s.56-3.79,6.35-4.12c0,0,2.95-4.07,3.74-4.32,0,0-5.76-.48-9.26,1.07,0,0,3.08-3.57,10.31-2l4-3.3s-7.59-1-10.8.11c0,0,3.7-3.16,11.89-.86l4.4-2.63s-6.47-1.39-10.32-.89c0,0,4.06-2.19,11.61.18l3.15-1.41s-4.74-.93-6.13-1.08-1.46-.53-1.46-.53a16.39,16.39,0,0,1,8.9,1S933.72,259.92,933.6,259.5Z" transform="translate(-88.58 -43.42)" fill="#ff1a5b" opacity="0.3"/>
    <path d="M463,314.62s-16.56-34.33-37.64-17.41c0,0-4.55,1.52-4.33,6.29,0,0,1.75-.91,3,2.77a17.72,17.72,0,0,0,1.84,3.7,8.63,8.63,0,0,0,4.29,3.4h0s9.07,7.18,26.36,2.28c0,0,4.83.83,5.62.25l-5.52-4.27s-3,4.17-7.18,4.54c0,0,7.16-4.23,6.39-5.21-.16-.2-3-2.13-3-2.13s-5.21,7.23-11.71,7.6c0,0,9.2-3.9,10.62-8.35l-4.5-2.66s-5.13,7.92-12.52,8.62c0,0,9.48-4.41,11.49-9.13l-4.78-2s-5.15,7.62-11.31,8.17c0,0,10.44-6.21,10.18-8.56,0,0-4.51-1.58-5.91-1.43,0,0-3.82,5.39-7.42,5.39,0,0,6.53-4.89,6.13-5.68,0,0-6.42-.5-9.8,1a19.47,19.47,0,0,1,9.83-2,10.77,10.77,0,0,0-5.14-3.39s3.58-1.36,6.69,3.53c0,0,5,.59,5.59,1.16,0,0-2.39-5.26-5.44-7.55,0,0,4.62.93,6.73,8l4.85,1.92s-2.79-7.12-5.36-9.37c0,0,4.56,1.69,6.55,10l4.44,2.56s-1.93-6.33-4.25-9.44c0,0,3.89,2.48,5.5,10.22l2.77,2.06s-1.5-4.59-2-5.87-.25-1.54-.25-1.54a16.41,16.41,0,0,1,3.48,8.25S462.64,314.92,463,314.62Z" transform="translate(-88.58 -43.42)" fill="#ff1a5b" opacity="0.5"/>
    <path d="M846.78,211s-16.55-34.33-37.64-17.41c0,0-4.54,1.52-4.33,6.29,0,0,1.76-.9,3,2.77a17.34,17.34,0,0,0,1.85,3.71,8.58,8.58,0,0,0,4.28,3.39h0s9.08,7.18,26.36,2.29c0,0,4.83.82,5.63.24L840.44,208s-3,4.18-7.17,4.55c0,0,7.15-4.24,6.38-5.22-.16-.2-3-2.13-3-2.13s-5.2,7.23-11.71,7.6c0,0,9.21-3.9,10.63-8.34L831,201.82s-5.12,7.91-12.52,8.62c0,0,9.48-4.42,11.5-9.14l-4.79-2s-5.15,7.63-11.3,8.17c0,0,10.43-6.21,10.17-8.55,0,0-4.5-1.59-5.9-1.43,0,0-3.82,5.38-7.43,5.38,0,0,6.54-4.89,6.14-5.68,0,0-6.42-.5-9.81,1a19.46,19.46,0,0,1,9.83-2,10.71,10.71,0,0,0-5.13-3.39s3.58-1.36,6.69,3.53c0,0,5,.6,5.59,1.17,0,0-2.39-5.27-5.45-7.56,0,0,4.62.94,6.73,8.05l4.86,1.92s-2.79-7.13-5.36-9.38c0,0,4.56,1.69,6.54,10l4.45,2.56s-1.94-6.32-4.26-9.44c0,0,3.9,2.48,5.5,10.22l2.77,2.06s-1.49-4.59-2-5.87-.25-1.53-.25-1.53a16.45,16.45,0,0,1,3.47,8.25S846.47,211.32,846.78,211Z" transform="translate(-88.58 -43.42)" fill="#ff1a5b" opacity="0.75"/>
    <path d="M899.67,380.81S883.12,346.47,862,363.39c0,0-4.54,1.52-4.33,6.29,0,0,1.76-.9,3,2.77a17.33,17.33,0,0,0,1.84,3.71,8.58,8.58,0,0,0,4.28,3.39h0s9.08,7.19,26.37,2.29c0,0,4.82.83,5.62.24l-5.52-4.27s-3,4.18-7.18,4.55c0,0,7.15-4.24,6.38-5.22-.16-.2-3-2.13-3-2.13s-5.2,7.23-11.71,7.61c0,0,9.21-3.91,10.63-8.35l-4.51-2.66s-5.12,7.92-12.52,8.62c0,0,9.48-4.42,11.5-9.14l-4.79-2s-5.15,7.62-11.3,8.17c0,0,10.44-6.21,10.18-8.56,0,0-4.51-1.59-5.91-1.43,0,0-3.82,5.38-7.43,5.38,0,0,6.54-4.89,6.14-5.68,0,0-6.42-.5-9.81,1a19.52,19.52,0,0,1,9.84-2,10.69,10.69,0,0,0-5.14-3.39s3.58-1.37,6.69,3.53c0,0,5,.59,5.59,1.16,0,0-2.39-5.26-5.44-7.56,0,0,4.62.94,6.73,8.05l4.85,1.92s-2.79-7.13-5.36-9.37c0,0,4.56,1.68,6.54,10l4.45,2.55s-1.94-6.32-4.26-9.44c0,0,3.9,2.48,5.51,10.23l2.77,2s-1.5-4.59-2-5.87-.25-1.53-.25-1.53a16.35,16.35,0,0,1,3.47,8.25S899.36,381.11,899.67,380.81Z" transform="translate(-88.58 -43.42)" fill="#ff1a5b" opacity="0.5"/>
    <path d="M691.17,790.14s-37.86,19.56-18.3,42.6c0,0,1.84,5,7.16,4.65,0,0-1.06-1.94,3-3.49a19.51,19.51,0,0,0,4.09-2.17,9.61,9.61,0,0,0,3.66-4.89h0s7.74-10.36,1.74-29.53c0,0,.78-5.42.1-6.3l-4.6,6.31s4.75,3.19,5.3,7.88c0,0-5-7.87-6-7-.22.18-2.28,3.45-2.28,3.45s8.24,5.59,8.85,12.85c0,0-4.64-10.17-9.65-11.62L681.37,808s9,5.48,10,13.72c0,0-5.23-10.45-10.57-12.56l-2.11,5.41s8.68,5.52,9.48,12.38c0,0-7.26-11.47-9.87-11.11,0,0-1.64,5.08-1.42,6.65,0,0,6.13,4.1,6.24,8.13,0,0-5.66-7.15-6.53-6.68,0,0-.36,7.19,1.38,10.93,0,0-3-5.34-2.51-10.93a12,12,0,0,0-3.63,5.84s-1.63-3.95,3.74-7.59c0,0,.51-5.59,1.13-6.28,0,0-5.81,2.84-8.28,6.32,0,0,.91-5.19,8.79-7.77l2-5.48s-7.88,3.34-10.31,6.28c0,0,1.75-5.15,10.93-7.62l2.72-5s-7,2.36-10.42,5c0,0,2.65-4.43,11.26-6.47l2.21-3.15s-5.08,1.81-6.5,2.46-1.7.33-1.7.33a18.39,18.39,0,0,1,9.11-4.14S691.52,790.48,691.17,790.14Z" transform="translate(-88.58 -43.42)" fill="#ff1a5b"/>

</g>




</svg>