
<svg id="b9bf6650-716f-405e-b16b-128ee0039b2f" data-name="Layer 1" xmlns="http://www.w3.org/2000/svg" width="1036" height="569.97133" viewBox="0 0 1036 569.97133">
    <title>Books</title>

        <a href="#">

            
        <!-- the three shapes -->

        <g id="first_div_shapes">


        <path d="M269.23657,245.89659a13.70673,13.70673,0,1,1,13.70672-13.70673A13.72244,13.72244,0,0,1,269.23657,245.89659Zm0-25.129a11.42227,11.42227,0,1,0,11.42227,11.42227A11.435,11.435,0,0,0,269.23657,220.76759Z" transform="translate(-82 -165.01433)" fill="#3f3d56"/>
        <path d="M878.989,601.46031H856.4401V578.91144H878.989Zm-20.81434-1.73453h19.07982V580.646H858.17463Z" transform="translate(-82 -165.01433)" fill="#3f3d56"/>
        <path d="M341.73544,580.99169l-15.38019-16.48943,16.48943-15.3802,15.38019,16.48944Zm-12.92868-16.40411,13.014,13.9526,13.95259-13.014-13.014-13.9526Z" transform="translate(-82 -165.01433)" fill="#3f3d56"/>
        

        
        </g>


        
        </a>
</svg>